<?xml version="1.0" encoding="UTF-8" standalone="no"?>
<svg width="405px" height="99px" viewBox="0 0 405 99" version="1.1" xmlns="http://www.w3.org/2000/svg" xmlns:xlink="http://www.w3.org/1999/xlink" xmlns:sketch="http://www.bohemiancoding.com/sketch/ns">
    <!-- Generator: Sketch 3.0.4 (8053) - http://www.bohemiancoding.com/sketch -->
    <title>paypal-marquee</title>
    <desc>Created with Sketch.</desc>
    <defs>
        <path id="path-1" d="M0.06,-0.179 L404.654,-0.179 L404.654,98 L0.06,98"></path>
    </defs>
    <g id="Page-1" stroke="none" stroke-width="1" fill="none" fill-rule="evenodd" sketch:type="MSPage">
        <g id="pp_h_1c_pal-blue" sketch:type="MSLayerGroup" transform="translate(0.000000, 1.000000)">
            <path d="M314.196,42.613 C312.98,50.6 306.88,50.6 300.98,50.6 L297.623,50.6 L299.978,35.688 C300.12,34.787 300.897,34.123 301.81,34.123 L303.349,34.123 C307.364,34.123 311.158,34.123 313.114,36.411 C314.284,37.78 314.638,39.809 314.196,42.613 L314.196,42.613 Z M311.628,21.776 L289.377,21.776 C287.856,21.776 286.561,22.883 286.324,24.386 L277.327,81.439 C277.149,82.564 278.019,83.582 279.159,83.582 L290.575,83.582 C291.64,83.582 292.547,82.807 292.712,81.755 L295.264,65.581 C295.501,64.078 296.796,62.971 298.317,62.971 L305.358,62.971 C320.014,62.971 328.472,55.878 330.683,41.821 C331.678,35.673 330.723,30.842 327.844,27.46 C324.68,23.742 319.072,21.776 311.628,21.776 L311.628,21.776 Z" id="Fill-1" fill="#FFFFFF" sketch:type="MSShapeGroup"></path>
            <path d="M155.499,42.613 C154.283,50.6 148.183,50.6 142.284,50.6 L138.927,50.6 L141.281,35.688 C141.424,34.787 142.201,34.123 143.113,34.123 L144.652,34.123 C148.668,34.123 152.462,34.123 154.417,36.411 C155.588,37.78 155.942,39.809 155.499,42.613 L155.499,42.613 Z M152.932,21.776 L130.681,21.776 C129.16,21.776 127.865,22.883 127.628,24.386 L118.63,81.439 C118.453,82.564 119.323,83.582 120.462,83.582 L131.086,83.582 C132.607,83.582 133.903,82.475 134.14,80.973 L136.568,65.581 C136.804,64.078 138.1,62.971 139.621,62.971 L146.662,62.971 C161.317,62.971 169.776,55.878 171.987,41.821 C172.982,35.673 172.027,30.842 169.148,27.46 C165.983,23.742 160.375,21.776 152.932,21.776 L152.932,21.776 Z" id="Fill-2" fill="#FFFFFF" sketch:type="MSShapeGroup"></path>
            <path d="M204.587,63.095 C203.558,69.183 198.725,73.27 192.561,73.27 C189.471,73.27 186.997,72.276 185.407,70.394 C183.831,68.528 183.238,65.87 183.737,62.91 C184.697,56.877 189.607,52.658 195.677,52.658 C198.703,52.658 201.159,53.662 202.781,55.561 C204.413,57.474 205.054,60.15 204.587,63.095 L204.587,63.095 Z M219.435,42.358 L208.781,42.358 C207.868,42.358 207.091,43.021 206.949,43.924 L206.48,46.903 L205.735,45.823 C203.428,42.474 198.286,41.355 193.151,41.355 C181.38,41.355 171.325,50.275 169.368,62.786 C168.349,69.027 169.795,74.991 173.334,79.154 C176.585,82.979 181.225,84.571 186.753,84.571 C196.241,84.571 201.503,78.476 201.503,78.476 L201.027,81.437 C200.849,82.563 201.719,83.582 202.859,83.582 L212.454,83.582 C213.975,83.582 215.27,82.476 215.507,80.973 L221.267,44.501 C221.445,43.375 220.575,42.358 219.435,42.358 L219.435,42.358 Z" id="Fill-3" fill="#FFFFFF" sketch:type="MSShapeGroup"></path>
            <path d="M363.283,63.095 C362.254,69.183 357.422,73.27 351.258,73.27 C348.167,73.27 345.694,72.276 344.103,70.394 C342.527,68.528 341.934,65.87 342.434,62.91 C343.393,56.877 348.303,52.658 354.374,52.658 C357.399,52.658 359.856,53.662 361.477,55.561 C363.109,57.474 363.75,60.15 363.283,63.095 L363.283,63.095 Z M378.131,42.358 L367.477,42.358 C366.564,42.358 365.787,43.021 365.645,43.924 L365.176,46.903 L364.432,45.823 C362.124,42.474 356.982,41.355 351.847,41.355 C340.077,41.355 330.021,50.275 328.064,62.786 C327.046,69.027 328.492,74.991 332.03,79.154 C335.282,82.979 339.921,84.571 345.449,84.571 C354.937,84.571 360.199,78.476 360.199,78.476 L359.724,81.437 C359.545,82.563 360.415,83.582 361.556,83.582 L371.15,83.582 C372.671,83.582 373.966,82.476 374.204,80.973 L379.963,44.501 C380.141,43.375 379.271,42.358 378.131,42.358 L378.131,42.358 Z" id="Fill-4" fill="#FFFFFF" sketch:type="MSShapeGroup"></path>
            <path d="M276.18,42.358 L265.471,42.358 C264.447,42.358 263.489,42.866 262.914,43.713 L248.142,65.47 L241.881,44.563 C241.49,43.255 240.286,42.358 238.92,42.358 L228.393,42.358 C227.122,42.358 226.227,43.608 226.637,44.811 L238.429,79.423 L227.338,95.073 C226.467,96.301 227.346,98 228.851,98 L239.55,98 C240.564,98 241.513,97.503 242.091,96.669 L277.705,45.27 C278.557,44.04 277.677,42.358 276.18,42.358" id="Fill-5" fill="#FFFFFF" sketch:type="MSShapeGroup"></path>
            <path d="M390.689,23.343 L381.557,81.439 C381.38,82.565 382.25,83.582 383.389,83.582 L392.574,83.582 C394.095,83.582 395.39,82.475 395.627,80.973 L404.631,23.92 C404.809,22.794 403.939,21.776 402.799,21.776 L392.521,21.776 C391.608,21.776 390.831,22.441 390.689,23.343" id="Fill-7" fill="#FFFFFF" sketch:type="MSShapeGroup"></path>
            <path d="M42.152,93.955 L45.143,74.989 L45.336,73.938 C45.48,73.024 45.948,72.188 46.653,71.586 C47.358,70.984 48.257,70.652 49.184,70.652 L51.559,70.652 C55.518,70.652 59.155,70.229 62.37,69.395 C65.8,68.506 68.851,67.121 71.437,65.282 C74.179,63.332 76.482,60.811 78.283,57.791 C80.183,54.605 81.578,50.769 82.43,46.391 C83.183,42.525 83.324,39.064 82.851,36.103 C82.35,32.975 81.145,30.306 79.27,28.168 C78.133,26.873 76.678,25.751 74.946,24.833 L74.905,24.811 L74.904,24.761 C75.509,20.902 75.486,17.683 74.835,14.912 C74.181,12.135 72.857,9.636 70.784,7.274 C66.489,2.38 58.677,-0.102 47.566,-0.102 L17.051,-0.102 C16.031,-0.102 15.041,0.263 14.265,0.926 C13.489,1.589 12.975,2.51 12.815,3.518 L0.109,84.091 C-0.007,84.826 0.204,85.573 0.688,86.137 C1.172,86.704 1.876,87.029 2.62,87.029 L21.551,87.029 L21.534,87.119 L20.234,95.363 C20.134,96.004 20.318,96.654 20.739,97.146 C21.16,97.639 21.773,97.923 22.421,97.923 L38.299,97.923 C39.19,97.923 40.053,97.604 40.73,97.025 C41.407,96.446 41.857,95.643 41.996,94.764 L42.152,93.955" id="Fill-8" fill="#FFFFFF" sketch:type="MSShapeGroup"></path>
            <path d="M31.274,24.866 C31.475,23.589 32.294,22.544 33.397,22.015 C33.899,21.775 34.459,21.641 35.046,21.641 L58.965,21.641 C61.799,21.641 64.441,21.827 66.857,22.216 C67.547,22.327 68.218,22.455 68.871,22.6 C69.524,22.745 70.157,22.906 70.77,23.086 C71.077,23.175 71.378,23.269 71.675,23.368 C72.861,23.762 73.965,24.226 74.981,24.764 C76.179,17.127 74.973,11.93 70.842,7.223 C66.294,2.041 58.078,-0.179 47.566,-0.179 L17.051,-0.179 C14.903,-0.179 13.074,1.384 12.739,3.506 L0.033,84.079 C-0.218,85.669 1.011,87.106 2.62,87.106 L21.458,87.106 L31.274,24.866" id="Fill-9" fill="#FFFFFF" sketch:type="MSShapeGroup"></path>
            <path d="M74.981,24.764 L74.981,24.764 C74.89,25.347 74.789,25.94 74.669,26.551 C70.646,47.212 56.878,54.355 39.294,54.355 L30.34,54.355 C28.192,54.355 26.378,55.919 26.043,58.041 L20.158,95.352 C19.939,96.742 21.014,98 22.421,98 L38.3,98 C40.179,98 41.779,96.633 42.072,94.776 L42.228,93.969 L45.219,75.001 L45.412,73.953 C45.705,72.096 47.305,70.729 49.184,70.729 L51.559,70.729 C66.942,70.729 78.987,64.479 82.507,46.405 C83.977,38.853 83.217,32.549 79.328,28.117 C78.152,26.777 76.688,25.668 74.981,24.764" id="Fill-11" fill="#A0C2DD" sketch:type="MSShapeGroup"></path>
            <path d="M70.77,23.086 C70.157,22.906 69.524,22.745 68.871,22.6 C68.218,22.455 67.547,22.327 66.857,22.216 C64.441,21.827 61.799,21.641 58.965,21.641 L35.046,21.641 C34.459,21.641 33.899,21.775 33.397,22.015 C32.294,22.544 31.475,23.589 31.274,24.866 L26.19,57.1 L26.043,58.041 C26.378,55.919 28.192,54.355 30.34,54.355 L39.294,54.355 C56.878,54.355 70.646,47.212 74.669,26.551 C74.789,25.94 74.89,25.347 74.981,24.764 C73.965,24.226 72.861,23.762 71.675,23.368 C71.378,23.269 71.077,23.175 70.77,23.086" id="Fill-12" fill="#DDEAF1" sketch:type="MSShapeGroup"></path>
        </g>
    </g>
</svg>